HIERARCHY
ROOT Pelvis
{
	OFFSET 0.000000 0.000000 0.000000
	CHANNELS 6 Xposition Yposition Zposition Xrotation Yrotation Zrotation
	JOINT LeftUpLeg_virtual
	{
		OFFSET 0.000000 0.000000 0.000000
		CHANNELS 3 Xrotation Yrotation Zrotation
		JOINT LeftUpLeg
		{
			OFFSET 8.479700 -4.795502 -0.379100
			CHANNELS 3 Xrotation Yrotation Zrotation
			JOINT LeftLeg
			{
				OFFSET 0.024144 -32.555107 0.112900
				CHANNELS 3 Xrotation Yrotation Zrotation
				JOINT LeftFoot
				{
					OFFSET -0.024144 -32.638630 -3.012600
					CHANNELS 3 Xrotation Yrotation Zrotation
					JOINT LeftToeBase
					{
						OFFSET 0.970200 -13.225400 11.864200
						CHANNELS 3 Xrotation Yrotation Zrotation
						End Site
						{
							OFFSET 0 0 0
						}
					}
				}
			}
		}
	}
	JOINT RightUpLeg_virtual
	{
		OFFSET 0.000000 0.000000 0.000000
		CHANNELS 3 Xrotation Yrotation Zrotation
		JOINT RightUpLeg
		{
			OFFSET -8.479700 -4.795502 -0.379100
			CHANNELS 3 Xrotation Yrotation Zrotation
			JOINT RightLeg
			{
				OFFSET -0.023144 -32.555092 0.112900
				CHANNELS 3 Xrotation Yrotation Zrotation
				JOINT RightFoot
				{
					OFFSET 0.023144 -32.638641 -3.012700
					CHANNELS 3 Xrotation Yrotation Zrotation
					JOINT RightToeBase
					{
						OFFSET -0.970200 -13.225400 11.864200
						CHANNELS 3 Xrotation Yrotation Zrotation
						End Site
						{
							OFFSET 0 0 0
						}
					}
				}
			}
		}
	}
	JOINT Hips_virtual
	{
		OFFSET 0.000000 0.000000 0.000000
		CHANNELS 3 Xrotation Yrotation Zrotation
		JOINT Hips
		{
			OFFSET -0.000000 -0.000000 -0.000000
			CHANNELS 3 Xrotation Yrotation Zrotation
			JOINT Spine
			{
				OFFSET 0.000000 7.722000 1.166200
				CHANNELS 3 Xrotation Yrotation Zrotation
				JOINT Spine1
				{
					OFFSET 0.000000 12.024101 0.248800
					CHANNELS 3 Xrotation Yrotation Zrotation
					JOINT Spine2
					{
						OFFSET 0.000000 11.502998 -0.491200
						CHANNELS 3 Xrotation Yrotation Zrotation
						JOINT Neck_virtual
						{
							OFFSET 0.000000 0.000000 0.000000
							CHANNELS 3 Xrotation Yrotation Zrotation
							JOINT Neck
							{
								OFFSET 0.000000 18.430702 -3.123100
								CHANNELS 3 Xrotation Yrotation Zrotation
								JOINT Head
								{
									OFFSET 0.000000 9.051102 1.034000
									CHANNELS 3 Xrotation Yrotation Zrotation
									End Site
									{
										OFFSET 0 0 0
									}
								}
							}
						}
						JOINT LeftShoulder_virtual
						{
							OFFSET 0.000000 0.000000 0.000000
							CHANNELS 3 Xrotation Yrotation Zrotation
							JOINT LeftShoulder
							{
								OFFSET 6.197800 13.665199 -4.064700
								CHANNELS 3 Xrotation Yrotation Zrotation
								JOINT LeftArm
								{
									OFFSET 7.778100 -0.187103 -1.709300
									CHANNELS 3 Xrotation Yrotation Zrotation
									JOINT LeftForeArm
									{
										OFFSET 22.049376 0.000000 0.000000
										CHANNELS 3 Xrotation Yrotation Zrotation
										JOINT LeftHand
										{
											OFFSET 23.009392 0.000000 0.000000
											CHANNELS 3 Xrotation Yrotation Zrotation
											End Site
											{
												OFFSET 0 0 0
											}
										}
									}
								}
							}
						}
						JOINT RightShoulder_virtual
						{
							OFFSET 0.000000 0.000000 0.000000
							CHANNELS 3 Xrotation Yrotation Zrotation
							JOINT RightShoulder
							{
								OFFSET -6.197800 13.665199 -4.064700
								CHANNELS 3 Xrotation Yrotation Zrotation
								JOINT RightArm
								{
									OFFSET -7.778100 -0.187103 -1.709300
									CHANNELS 3 Xrotation Yrotation Zrotation
									JOINT RightForeArm
									{
										OFFSET -22.049376 0.000000 0.000000
										CHANNELS 3 Xrotation Yrotation Zrotation
										JOINT RightHand
										{
											OFFSET -23.009392 0.000000 0.000000
											CHANNELS 3 Xrotation Yrotation Zrotation
											End Site
											{
												OFFSET 0 0 0
											}
										}
									}
								}
							}
						}
					}
				}
			}
		}
	}
}
MOTION
Frames: 4
Frame Time: 0.03333333
-0.250048 70.702034 0.244967 0.000000 0.000000 0.000000 11.695785 -49.489546 11.290279 -64.578660 28.127904 42.221043 45.036242 -20.081272 3.175756 2.545431 0.952103 -10.119391 0.000000 0.000000 0.000000 11.695785 -49.489546 11.290279 -33.975516 -0.459085 -24.258129 53.259858 1.997438 -6.750507 -26.566046 -2.745432 24.293581 0.000000 0.000000 0.000000 11.695785 -49.489546 11.290279 0.000000 -0.000002 0.000000 10.973419 2.836814 -2.050426 6.100716 5.566530 -4.284690 0.000000 0.000000 0.000000 -5.786908 6.328144 -3.046187 2.318656 9.363416 -0.265728 0.000000 0.000000 0.000000 -5.786908 6.328144 -3.046187 -1.882849 -16.244765 -2.883353 -10.641506 2.224948 -45.488367 -22.862395 -25.786227 -15.871707 0.000000 0.000000 0.000000 -5.786908 6.328144 -3.046187 -5.080960 24.428091 1.493068 6.647378 -34.818556 57.612905 -21.031983 44.833806 19.961675 0.000000 0.000000 0.000000 
-0.281272 70.696068 0.240129 0.000000 0.000000 0.000000 11.679637 -49.632785 11.293450 -64.514244 28.122821 42.279288 45.061992 -19.899555 3.239303 2.511245 0.964322 -10.220493 0.000000 0.000000 0.000000 11.679637 -49.632785 11.293450 -33.982288 -0.371544 -24.197053 53.318383 2.003591 -6.749587 -26.598739 -2.719680 24.266950 0.000000 0.000000 0.000000 11.679637 -49.632785 11.293450 0.000000 0.000000 0.000000 10.971153 2.892773 -2.064650 6.133759 5.604297 -4.247336 0.000000 0.000000 0.000000 -5.764548 6.336163 -3.016235 2.313013 9.402309 -0.496347 0.000000 0.000000 0.000000 -5.764548 6.336163 -3.016235 -1.902997 -16.283492 -3.000826 -10.665532 2.222327 -45.395121 -22.827792 -25.744972 -15.838616 0.000000 0.000000 0.000000 -5.764548 6.336163 -3.016235 -5.036449 24.265318 1.406468 6.704546 -34.680313 57.476062 -20.413774 44.915426 19.709409 0.000000 0.000000 0.000000 
-0.314133 70.687965 0.229797 0.000000 0.000000 0.000000 11.533824 -49.770656 11.219444 -64.355108 28.137898 42.318493 45.094459 -19.917207 3.298846 2.442131 0.976039 -10.324336 0.000000 0.000000 0.000000 11.533824 -49.770656 11.219444 -33.910066 -0.296408 -24.176775 53.376129 2.043275 -6.744057 -26.571475 -2.685498 24.230374 0.000000 0.000000 0.000000 11.533824 -49.770656 11.219444 0.000000 0.000000 0.000000 10.991093 2.931215 -2.087504 6.210110 5.609810 -4.231204 0.000000 0.000000 0.000000 -5.697417 6.318247 -3.012860 2.193452 9.464194 -0.640305 0.000000 0.000000 0.000000 -5.697417 6.318247 -3.012860 -1.908074 -16.258750 -3.020666 -10.687426 2.247388 -45.360027 -22.769663 -25.731472 -15.803248 0.000000 0.000000 0.000000 -5.697417 6.318247 -3.012860 -5.072082 24.344582 1.612734 6.672724 -34.749626 56.881699 -18.584965 45.084009 18.881575 0.000000 0.000000 0.000000 
-0.343185 70.681328 0.194040 0.000000 0.000000 0.000000 11.453872 -49.955525 11.208598 -64.219576 28.169251 42.354522 45.082428 -19.766211 3.390863 2.419700 0.964305 -10.466064 0.000000 0.000000 0.000000 11.453872 -49.955525 11.208598 -33.919525 -0.160194 -24.116204 53.479415 2.072982 -6.738900 -26.577164 -2.650374 24.172996 0.000000 0.000000 0.000000 11.453872 -49.955525 11.208598 0.000000 0.000000 0.000000 10.999896 2.965497 -2.108567 6.262215 5.612158 -4.216232 0.000000 0.000000 0.000000 -5.653938 6.298714 -3.010384 2.178522 9.585922 -0.934681 0.000000 0.000000 0.000000 -5.653938 6.298714 -3.010384 -1.889326 -15.962413 -3.044853 -10.743612 2.048040 -45.378964 -22.673240 -25.677852 -15.719294 0.000000 0.000000 0.000000 -5.653938 6.298714 -3.010384 -5.079891 24.138018 1.822010 6.573129 -34.379532 55.764547 -14.830239 45.143285 17.007530 0.000000 0.000000 0.000000 
